# xmcd
#
# Track frame offsets: 
#        183
#        13418
#        27010
#        41375
#        52305
#        67705
#        87698
#        101105
#        115263
#        137558
#        151633
#        166260
#        182040
#        203448
#        223393
#        255098
#
# Disc length: 3658 seconds
#
# Revision: 6
# Processed by: cddbd v1.5.2PL0 Copyright (c) Steve Scherf et al.
# Submitted via: ExactAudioCopy v1.1
#
DISCID=d40e4810
DTITLE=Emmylou Harris and the Nash Ramblers - At The Ryman
DYEAR=1992
DGENRE=Country
TTITLE0=Guitar Town (Live at The Ryman)
TTITLE1=Half As Much (Live at The Ryman)
TTITLE2=Cattle Call (Live at The Ryman)
TTITLE3=Guess Things Happen That Way (Live at The Ryman)
TTITLE4=Hard Times (Live at The Ryman)
TTITLE5=Mansion On The Hill (Live at The Ryman)
TTITLE6=Scotland (Live at The Ryman)
TTITLE7=Montana Cowgirl (Live at The Ryman)
TTITLE8=Like Strangers (Live at The Ryman)
TTITLE9=Lodi (Live at The Ryman)
TTITLE10=Calling My Children Home (Live at The Ryman)
TTITLE11=If I Could Be There (Live at The Ryman)
TTITLE12=Walls Of Time (Live at The Ryman)
TTITLE13=Get Up John (Live at The Ryman)
TTITLE14=It's A Hard Life Wherever You Go - Abraham, Martin And John (
TTITLE14=Live at The Ryman)
TTITLE15=Smoke Along The Track (Live at The Ryman)
EXTD=
EXTT0=
EXTT1=
EXTT2=
EXTT3=
EXTT4=
EXTT5=
EXTT6=
EXTT7=
EXTT8=
EXTT9=
EXTT10=
EXTT11=
EXTT12=
EXTT13=
EXTT14=
EXTT15=
PLAYORDER=
